<?xml version="1.0" encoding="utf-8"?>
<!-- Generator: Adobe Illustrator 25.2.0, SVG Export Plug-In . SVG Version: 6.00 Build 0)  -->
<svg version="1.1" id="Layer_1" xmlns="http://www.w3.org/2000/svg" xmlns:xlink="http://www.w3.org/1999/xlink" x="0px" y="0px"
	 viewBox="0 0 360 360" style="enable-background:new 0 0 360 360;" xml:space="preserve">
<style type="text/css">
	.st0{fill:#ED1C24;}
	.st1{fill:#2E3192;}
	.st2{fill:#FFF200;}
	.st3{fill:#009444;}
	.st4{fill:#662D91;}
	.st5{fill:#F15A29;}
</style>
<g>
	<polygon className="st0" points="238.69,356.07 3.92,356.07 121.31,121.29 121.31,121.29 	"/>
	<path className="st1" d="M273.91,191.73c-21.42,28.51-55.51,46.95-93.91,46.95c-64.83,0-117.39-52.56-117.39-117.39S115.17,3.9,180,3.9
		c38.4,0,72.5,18.44,93.91,46.95l-35.22,70.44L273.91,191.73z"/>
	<polygon className="st2" points="297.39,121.29 180,121.29 180,356.07 356.08,356.07 356.08,238.68 297.39,238.68 	"/>
	<path className="st3" d="M238.34,120.78L180,121.29l-0.61,117.39c38.57,0,72.81-18.52,94.32-47.15L238.34,120.78z"/>
	<path className="st4" d="M121.27,121L180,238.46c-38.43,0-72.54-18.45-93.97-46.98L121.27,121z"/>
	<polygon className="st5" points="180,238.68 238.69,356.07 180,356.07 	"/>
</g>
</svg>
