<svg id="Layer_1" data-name="Layer 1" xmlns="http://www.w3.org/2000/svg" viewBox="0 0 489 489"><path d="M360.23,3.52H129A125.28,125.28,0,0,0,3.9,128.67V359.86A125.28,125.28,0,0,0,129,485H360.23A125.28,125.28,0,0,0,485.37,359.86V128.67A125.29,125.29,0,0,0,360.23,3.52ZM314.61,253.8H260V77.68h54.57v16.4l51.74-20.65,54.57,20.65V253.8H366.35v-130l-51.74,11.48ZM129,23.34h81.25c8.32,29.1,16.37,101.55-91.7,140C57.73,185,30.13,216.85,23.72,248.82V128.67A105.44,105.44,0,0,1,129,23.34ZM360.23,465.18H129A105.44,105.44,0,0,1,23.72,359.86v-80.4c5.6,28.88,26.25,55,52.15,70,58,33.56,152.55-21.36,205.92-38.94s151.91-14.2,151.91-14.2l31.85-.19v63.77A105.44,105.44,0,0,1,360.23,465.18Z"/></svg>